# xmcd
# 
# Track frame offsets:
#     182
#     19192
#     35855
#     54590
#     67725
#     84195
#     97685
#     122317
#     144417
#     165642
#     183180
#     201035
#     219750
#     231535
#     247605
#     265545
# 
# Disc length: 3797
# 
# Revision: 4
# Processed by: cddbd v1.5.2PL0 Copyright (c) Steve Scherf et al.
# Submitted via: fre:ac v1.0.17
# 
DISCID=bf0ed310
DTITLE=Ray Charles - Love Songs (Ray Charles)
DYEAR=1999
DGENRE=Vocal
TTITLE0=I Can't Stop Loving You
TTITLE1=Come Rain or Come Shine
TTITLE2=Baby It's Cold Outside (with Betty Carter)
TTITLE3=Gee, Baby Ain't I Good to You
TTITLE4=Georgia On My Mind
TTITLE5=You Are My Sunshine
TTITLE6=Bess, You Is My Woman (with Cleo Laine)
TTITLE7=I Didn't Know What Time It Was
TTITLE8=Someday
TTITLE9=Ruby
TTITLE10=How Deep Is The Ocean (How High Is The Sky)
TTITLE11=Till There Was You
TTITLE12=What Would I Do Without You
TTITLE13=I Love You So Much It Hurts
TTITLE14=Yours
TTITLE15=A Song For You
EXTD=YEAR: 1999 ID3G: 0
EXTT0=
EXTT1=
EXTT2=
EXTT3=
EXTT4=
EXTT5=
EXTT6=
EXTT7=
EXTT8=
EXTT9=
EXTT10=
EXTT11=
EXTT12=
EXTT13=
EXTT14=
EXTT15=
PLAYORDER=
